<?xml version="1.0" encoding="utf-8"?>
<!-- Generator: Adobe Illustrator 18.0.0, SVG Export Plug-In . SVG Version: 6.00 Build 0)  -->
<!DOCTYPE svg PUBLIC "-//W3C//DTD SVG 1.0//EN" "http://www.w3.org/TR/2001/REC-SVG-20010904/DTD/svg10.dtd">
<svg xmlns="http://www.w3.org/2000/svg" xmlns:xlink="http://www.w3.org/1999/xlink" version="1.0" id="Layer_1" x="0px" y="0px" viewBox="0 0 24 24" enable-background="new 0 0 24 24" xml:space="preserve" stroke="none">
<rect fill="none" stroke="none" width="24" height="24"/>
<path d="M20,4H4C2.9,4,2,4.9,2,6v12c0,1.1,0.9,2,2,2h16c1.1,0,2-0.9,2-2V6C22,4.9,21.1,4,20,4z M12,17c-2.8,0-5-2.2-5-5s2.2-5,5-5  s5,2.2,5,5S14.8,17,12,17z" stroke="none"/>
<circle cx="12" cy="12" r="3.5" stroke="none"/>
<polygon points="18,5 15,2 9,2 6,5 " stroke="none"/>
</svg>
