<?xml version="1.0" encoding="utf-8"?>
<!-- Generator: Adobe Illustrator 18.1.1, SVG Export Plug-In . SVG Version: 6.00 Build 0)  -->
<svg xmlns="http://www.w3.org/2000/svg" xmlns:xlink="http://www.w3.org/1999/xlink" version="1.1" id="Layer_1" x="0px" y="0px" viewBox="0 0 24 24" enable-background="new 0 0 24 24" xml:space="preserve" stroke="none">
<path fill="none" stroke-width="2" stroke-miterlimit="10" d="M12.8,13c-0.5,0-1,0.2-1.4,0.6  c-0.3,0.3-0.5,0.5-0.8,0.8c-0.8,0.8-0.8,2.2,0,3c0.8,0.8,2.2,0.8,3,0c0.3-0.3,1.1-1.1,1.4-1.4c0.8-0.8,0.8-2.2,0-3"/>
<path fill="none" stroke-width="2" stroke-miterlimit="10" d="M15,15c0.6,0,1.2-0.2,1.6-0.6  c0.3-0.3,0.5-0.5,0.8-0.8c0.8-0.8,0.8-2.2,0-3c-0.8-0.8-2.2-0.8-3,0c-0.3,0.3-1.1,1.1-1.4,1.4c-0.8,0.8-0.8,2.2,0,3"/>
<g >
	<path d="M20,8v12H8V8H20 M20,6H8C6.9,6,6,6.9,6,8v12c0,1.1,0.9,2,2,2h12c1.1,0,2-0.9,2-2V8C22,6.9,21.1,6,20,6L20,6z" />
</g>
<path d="M4,18V4h13V2H4C2.9,2,2,2.9,2,4v14H4z" stroke="none"/>
</svg>
